<svg viewBox="0 0 256 256" xmlns="http://www.w3.org/2000/svg"><path d="m128 84a44 44 0 1 0 44 44 44.04978 44.04978 0 0 0 -44-44zm0 80a36 36 0 1 1 36-36 36.04061 36.04061 0 0 1 -36 36zm44-132h-88a52.059 52.059 0 0 0 -52 52v88a52.059 52.059 0 0 0 52 52h88a52.059 52.059 0 0 0 52-52v-88a52.059 52.059 0 0 0 -52-52zm44 140a44.04978 44.04978 0 0 1 -44 44h-88a44.04978 44.04978 0 0 1 -44-44v-88a44.04978 44.04978 0 0 1 44-44h88a44.04978 44.04978 0 0 1 44 44zm-28-96a8 8 0 1 1 -8-8 8.00917 8.00917 0 0 1 8 8z"/></svg>